<svg width="103" height="103" viewBox="0 0 103 103" fill="none" xmlns="http://www.w3.org/2000/svg">
<circle cx="51.5" cy="51.5" r="51.5" fill="#F9ECE9"/>
<path d="M38.643 62.0264H40.4244H70.797C71.5309 62.0264 72.1775 61.5443 72.3871 60.8409L78.9309 38.8688C79.0804 38.3667 78.9839 37.8236 78.6709 37.4036C78.3577 36.9836 77.8647 36.7362 77.3409 36.7362H35.1175L32.885 29.2396C32.6755 28.5363 32.0288 28.0542 31.2949 28.0542H24.6591C23.7429 28.0541 23 28.7969 23 29.7132C23 30.6294 23.7429 31.3723 24.6591 31.3723H30.058L32.2799 38.8329C32.2867 38.8575 32.2938 38.8819 32.3017 38.906L38.2042 58.7249C34.835 58.9516 32.1627 61.7631 32.1627 65.1888C32.1627 68.7621 35.0697 71.6691 38.6429 71.6691H40.29C41.0098 74.137 43.2909 75.9459 45.9881 75.9459C48.6852 75.9459 50.9664 74.1371 51.6862 71.6691H60.4889C61.2087 74.137 63.4899 75.9459 66.187 75.9459C68.8841 75.9459 71.1654 74.1371 71.8852 71.6691H74.0227C74.9389 71.6691 75.6818 70.9263 75.6818 70.01C75.6818 69.0938 74.9389 68.3509 74.0227 68.3509H71.8852C71.1654 65.883 68.8842 64.0741 66.187 64.0741C63.4899 64.0741 61.2086 65.883 60.4889 68.3509H51.6862C50.9664 65.883 48.6853 64.0741 45.9881 64.0741C43.2909 64.0741 41.0097 65.883 40.29 68.3509H38.6429C36.8993 68.3509 35.4808 66.9323 35.4808 65.1887C35.4808 63.445 36.8994 62.0264 38.643 62.0264ZM62.9816 40.0542H75.1158L72.832 47.7221H62.9816V40.0542ZM62.9815 51.0403H71.8437L69.5601 58.7083H62.9815V51.0403ZM50.7051 40.0542H59.6635V47.7221H50.7051V40.0542ZM50.705 51.0403H59.6634V58.7083H50.705V51.0403ZM47.3871 58.7083H41.6615L39.3778 51.0403H47.3871V58.7083ZM36.106 40.0542H47.387V47.7221H38.3896L36.106 40.0542ZM66.1871 67.3922C67.6306 67.3922 68.8048 68.5665 68.8048 70.0099C68.8048 71.4533 67.6306 72.6276 66.1871 72.6276C64.7437 72.6276 63.5695 71.4533 63.5695 70.0099C63.5695 68.5665 64.7437 67.3922 66.1871 67.3922ZM45.9882 67.3922C47.4316 67.3922 48.6059 68.5665 48.6059 70.0099C48.6059 71.4533 47.4316 72.6276 45.9882 72.6276C44.5448 72.6276 43.3705 71.4533 43.3705 70.0099C43.3705 68.5665 44.5448 67.3922 45.9882 67.3922Z" fill="#ED4521"/>
</svg>
