<svg width="17" height="19" viewBox="0 0 17 19" fill="none" xmlns="http://www.w3.org/2000/svg">
<path d="M5.10216 19.007C4.47338 18.9728 3.8817 18.6986 3.44916 18.241C2.93176 17.7432 2.47004 17.1906 2.07216 16.593C1.45065 15.703 0.959362 14.7288 0.61316 13.7C0.221023 12.5932 0.0145726 11.4292 0.00216003 10.255C-0.0279736 9.10286 0.257671 7.96443 0.82816 6.963C1.24573 6.2411 1.84135 5.63825 2.55816 5.212C3.26705 4.78756 4.07598 4.5591 4.90216 4.55C5.52498 4.58685 6.13701 4.7292 6.71216 4.971C7.17071 5.17276 7.65335 5.31459 8.14816 5.393C8.69418 5.27861 9.22771 5.11115 9.74116 4.893C10.3488 4.65571 10.9922 4.52284 11.6442 4.5C11.7312 4.5 11.8172 4.5 11.9002 4.51C12.6055 4.53046 13.2968 4.71236 13.9209 5.04174C14.545 5.37112 15.0852 5.8392 15.5002 6.41C14.8445 6.76054 14.299 7.28608 13.9242 7.92817C13.5493 8.57026 13.36 9.30372 13.3772 10.047C13.3706 10.6153 13.4846 11.1786 13.7116 11.6997C13.9386 12.2207 14.2735 12.6878 14.6942 13.07C15.0771 13.4348 15.5229 13.7272 16.0102 13.933C15.9102 14.233 15.7952 14.523 15.6732 14.815C15.3958 15.4603 15.0538 16.0758 14.6522 16.652C14.273 17.2292 13.8317 17.763 13.3362 18.244C12.8838 18.6929 12.2808 18.9577 11.6442 18.987C11.1045 18.9631 10.5744 18.8365 10.0822 18.614C9.55137 18.3827 8.98094 18.2561 8.40216 18.241C7.80705 18.2527 7.21973 18.3786 6.67216 18.612C6.19921 18.8254 5.69391 18.9582 5.17716 19.005L5.10216 19.007ZM8.25216 4.5C8.17716 4.5 8.10216 4.5 8.02716 4.491C8.01138 4.37197 8.00303 4.25207 8.00216 4.132C8.03487 3.13313 8.42523 2.17923 9.10216 1.444C9.48051 1.02158 9.93906 0.678598 10.4512 0.435C10.929 0.189001 11.4513 0.0410985 11.9872 0C12.0022 0.131 12.0022 0.259 12.0022 0.381C11.988 1.36415 11.6186 2.30898 10.9622 3.041C10.6443 3.46722 10.237 3.8187 9.7688 4.07074C9.30064 4.32279 8.78298 4.46931 8.25216 4.5Z" fill="#292825"/>
</svg>
