<svg width="24" height="24" viewBox="0 0 24 24" fill="none" xmlns="http://www.w3.org/2000/svg">
<g clip-path="url(#clip0_1214_23)">
<path d="M11.956 10.356V13.807H16.748C16.302 16 14.435 17.26 11.956 17.26C10.5684 17.2409 9.24407 16.6763 8.26956 15.6882C7.29504 14.7002 6.74868 13.3683 6.74868 11.9805C6.74868 10.5927 7.29504 9.26078 8.26956 8.27275C9.24407 7.28473 10.5684 6.7201 11.956 6.701C13.1562 6.69956 14.3195 7.11607 15.246 7.879L17.846 5.279C16.7613 4.32534 15.4613 3.64908 14.0578 3.30821C12.6542 2.96735 11.1889 2.97206 9.78756 3.32194C8.38622 3.67183 7.09068 4.35644 6.01207 5.31705C4.93346 6.27767 4.10398 7.4856 3.5948 8.83723C3.08561 10.1889 2.91192 11.6438 3.08862 13.0774C3.26532 14.5109 3.78713 15.8801 4.6093 17.0676C5.43147 18.2552 6.52945 19.2255 7.80905 19.8954C9.08864 20.5654 10.5117 20.9149 11.956 20.914C16.423 20.914 20.485 17.665 20.485 11.98C20.4781 11.4326 20.4111 10.8877 20.285 10.355L11.956 10.356Z" fill="#DD4B39"/>
</g>
<defs>
<clipPath id="clip0_1214_23">
<rect width="24" height="24" fill="white"/>
</clipPath>
</defs>
</svg>
